<svg id="Group_2" data-name="Group 2" xmlns="http://www.w3.org/2000/svg" xmlns:xlink="http://www.w3.org/1999/xlink" width="120.513" height="122.612" viewBox="0 0 120.513 122.612">
  <defs>
    <clipPath id="clip-path">
      <rect id="Rectangle_1" data-name="Rectangle 1" width="120.513" height="122.612" fill="none"/>
    </clipPath>
  </defs>
  <g id="Group_1" data-name="Group 1" clip-path="url(#clip-path)">
    <path id="Path_1" data-name="Path 1" d="M98.56,73.487c4.027,2.849,9.83,5.657,14.391,2.683,1.682-1.1,8.186-1.08,7.514,1.543-7.415,28.933-36.378,47.7-65.091,44.556a60.959,60.959,0,0,1-50.932-39.5A61.89,61.89,0,0,1,.135,56.455a60.828,60.828,0,0,1,75.617-54.6c1.547.386.439,5.636-1.1,6.588-4.381,2.718-6.849,8.518-5.205,14.835-21.068-4.079-42.284,9.3-45.917,30.346C19.621,76.284,33.815,95.906,56.2,99.311c17.966,2.733,35.142-7.787,42.359-25.824" fill="#de4b39"/>
    <path id="Path_2" data-name="Path 2" d="M75.335,52.891c2.69,10.1,7.994,17.416,20.071,15.926-.515,9.354-6.928,16.9-14.921,22.1a35.361,35.361,0,0,1-43.6-3.823c-12.17-11.611-14.97-29.144-6.393-43.813C38.55,29.491,55.693,22.1,71.756,27.542c-3.2,4.482-4.718,9.071-4.086,14.244.435,3.574,5.653,7.787,7.665,11.1" fill="#de4b39"/>
  </g>
</svg>
